<svg preserveAspectRatio="none" overflow="visible" style="display: block;" width="20" height="20" viewBox="0 0 20 20" fill="none" xmlns="http://www.w3.org/2000/svg">
<g id="&#208;&#151;&#208;&#189;&#208;&#176;&#208;&#186; / sun / &#208;&#188;&#208;&#184;&#208;&#189;&#208;&#184;">
<path id="Vector" d="M6.25 2.5H13.75C14.7446 2.5 15.6984 2.89509 16.4017 3.59835C17.1049 4.30161 17.5 5.25544 17.5 6.25V10.625C17.5 11.6196 17.1049 12.5734 16.4017 13.2767C15.6984 13.9799 14.7446 14.375 13.75 14.375H9.375L5.625 17.8125V14.375H6.25C5.25544 14.375 4.30161 13.9799 3.59835 13.2767C2.89509 12.5734 2.5 11.6196 2.5 10.625V6.25C2.5 5.25544 2.89509 4.30161 3.59835 3.59835C4.30161 2.89509 5.25544 2.5 6.25 2.5Z" fill="#7589DB"/>
<path id="Vector_2" d="M10 11.4062C11.6396 11.4062 12.9688 10.0771 12.9688 8.4375C12.9688 6.7979 11.6396 5.46875 10 5.46875C8.3604 5.46875 7.03125 6.7979 7.03125 8.4375C7.03125 10.0771 8.3604 11.4062 10 11.4062Z" fill="#121830"/>
</g>
</svg>
